<svg xmlns="http://www.w3.org/2000/svg" xmlns:xlink="http://www.w3.org/1999/xlink" width="1024" zoomAndPan="magnify" viewBox="0 0 768 767.999994" height="1024" preserveAspectRatio="xMidYMid meet" version="1.0"><defs><g/></defs><rect x="-76.8" width="921.6" fill="#ffffff" y="-76.799999" height="921.599993" fill-opacity="1"/><rect x="-76.8" width="921.6" fill="#ffffff" y="-76.799999" height="921.599993" fill-opacity="1"/><path fill="#000000" d="M 738.828125 682.03125 C 738.828125 673.546875 731.9375 666.644531 723.457031 666.644531 C 716.40625 666.644531 710.667969 672.386719 710.667969 679.433594 C 710.667969 680.792969 711.757812 681.882812 713.117188 681.882812 C 714.460938 681.882812 715.5625 680.792969 715.5625 679.433594 C 715.5625 675.089844 719.101562 671.542969 723.457031 671.542969 C 729.234375 671.542969 733.933594 676.253906 733.933594 682.03125 C 733.933594 689.59375 727.789062 695.738281 720.226562 695.738281 C 710.433594 695.738281 702.46875 687.78125 702.46875 677.992188 C 702.46875 665.410156 712.699219 655.179688 725.28125 655.179688 L 728.195312 655.179688 L 728.195312 112.820312 L 725.28125 112.816406 C 712.699219 112.816406 702.46875 102.585938 702.46875 90.015625 C 702.46875 80.222656 710.433594 72.257812 720.226562 72.257812 C 727.789062 72.257812 733.933594 78.410156 733.933594 85.96875 C 733.933594 91.75 729.234375 96.453125 723.457031 96.453125 C 719.101562 96.453125 715.5625 92.910156 715.5625 88.554688 C 715.5625 87.203125 714.460938 86.105469 713.117188 86.105469 C 711.757812 86.105469 710.667969 87.207031 710.667969 88.554688 C 710.667969 95.605469 716.40625 101.347656 723.457031 101.347656 C 731.9375 101.347656 738.828125 94.449219 738.828125 85.96875 C 738.828125 75.710938 730.480469 67.363281 720.226562 67.363281 C 707.730469 67.363281 697.574219 77.523438 697.574219 90.015625 C 697.574219 104.617188 708.941406 116.621094 723.296875 117.640625 L 723.296875 650.355469 C 708.941406 651.371094 697.574219 663.378906 697.574219 677.992188 C 697.574219 690.472656 707.730469 700.632812 720.226562 700.632812 C 730.480469 700.632812 738.828125 692.285156 738.828125 682.03125 Z M 695.457031 693.265625 C 694.890625 693.265625 694.144531 693.351562 693.753906 693.753906 C 691.722656 695.785156 695.527344 705.734375 705.894531 716.113281 C 714.585938 724.792969 722.699219 728.746094 726.566406 728.746094 C 727.117188 728.746094 727.863281 728.660156 728.265625 728.265625 C 730.296875 726.234375 726.480469 716.273438 716.113281 705.894531 C 707.425781 697.21875 699.324219 693.265625 695.457031 693.265625 Z M 726.566406 733.640625 C 720.445312 733.640625 710.984375 728.121094 702.445312 719.578125 C 692.152344 709.285156 684.660156 695.910156 690.289062 690.289062 C 691.160156 689.421875 692.761719 688.371094 695.457031 688.371094 C 701.5625 688.371094 711.035156 693.902344 719.578125 702.445312 C 729.871094 712.734375 737.347656 726.101562 731.730469 731.730469 C 730.847656 732.597656 729.246094 733.640625 726.566406 733.640625 Z M 70.425781 677.992188 C 70.425781 663.378906 59.058594 651.371094 44.703125 650.355469 L 44.703125 117.640625 C 59.058594 116.621094 70.425781 104.617188 70.425781 90.015625 C 70.425781 77.523438 60.261719 67.363281 47.773438 67.363281 C 37.515625 67.363281 29.167969 75.710938 29.167969 85.96875 C 29.167969 94.449219 36.066406 101.347656 44.542969 101.347656 C 51.59375 101.347656 57.332031 95.605469 57.335938 88.554688 C 57.335938 87.207031 56.242188 86.105469 54.886719 86.105469 C 53.535156 86.105469 52.441406 87.207031 52.441406 88.554688 C 52.4375 92.910156 48.898438 96.453125 44.542969 96.453125 C 38.761719 96.453125 34.0625 91.75 34.0625 85.96875 C 34.0625 78.410156 40.210938 72.257812 47.773438 72.257812 C 57.566406 72.257812 65.53125 80.222656 65.53125 90.015625 C 65.53125 102.585938 55.300781 112.816406 42.726562 112.816406 L 39.808594 112.816406 L 39.808594 655.175781 L 42.726562 655.175781 C 55.300781 655.175781 65.53125 665.410156 65.53125 677.988281 C 65.53125 687.78125 57.566406 695.734375 47.773438 695.734375 C 40.210938 695.734375 34.0625 689.59375 34.0625 682.027344 C 34.0625 676.253906 38.761719 671.539062 44.542969 671.539062 C 48.898438 671.539062 52.441406 675.089844 52.441406 679.433594 C 52.441406 680.792969 53.535156 681.882812 54.886719 681.882812 C 56.234375 681.882812 57.335938 680.792969 57.335938 679.433594 C 57.335938 672.386719 51.59375 666.644531 44.542969 666.644531 C 36.066406 666.644531 29.167969 673.546875 29.167969 682.027344 C 29.167969 692.285156 37.515625 700.632812 47.773438 700.632812 C 60.261719 700.632812 70.425781 690.472656 70.425781 677.988281 Z M 72.546875 693.265625 C 68.679688 693.265625 60.566406 697.21875 51.890625 705.894531 C 41.515625 716.273438 37.707031 726.234375 39.738281 728.265625 C 40.136719 728.660156 40.878906 728.746094 41.441406 728.746094 C 45.304688 728.746094 53.414062 724.792969 62.097656 716.113281 C 72.472656 705.734375 76.28125 695.785156 74.25 693.753906 C 73.851562 693.351562 73.101562 693.265625 72.546875 693.265625 Z M 41.441406 733.640625 C 38.753906 733.640625 37.152344 732.597656 36.277344 731.730469 C 30.65625 726.101562 38.132812 712.734375 48.429688 702.445312 C 56.972656 693.902344 66.441406 688.371094 72.546875 688.371094 C 75.230469 688.371094 76.835938 689.421875 77.710938 690.289062 C 83.332031 695.910156 75.851562 709.285156 65.558594 719.578125 C 57.015625 728.121094 47.546875 733.640625 41.441406 733.640625 Z M 700.640625 720.226562 C 700.640625 707.730469 690.480469 697.574219 678 697.574219 C 663.546875 697.574219 651.636719 708.699219 650.402344 722.832031 L 117.613281 722.832031 C 116.367188 708.699219 104.46875 697.574219 90.015625 697.574219 C 77.53125 697.574219 67.371094 707.730469 67.371094 720.226562 C 67.371094 730.480469 75.71875 738.828125 85.976562 738.828125 C 94.457031 738.828125 101.355469 731.9375 101.355469 723.457031 C 101.355469 716.40625 95.613281 710.667969 88.5625 710.667969 C 87.214844 710.667969 86.113281 711.757812 86.113281 713.117188 C 86.113281 714.460938 87.210938 715.5625 88.5625 715.5625 C 92.917969 715.5625 96.460938 719.101562 96.460938 723.457031 C 96.460938 729.234375 91.757812 733.933594 85.976562 733.933594 C 78.417969 733.933594 72.265625 727.789062 72.265625 720.226562 C 72.265625 710.433594 80.230469 702.46875 90.015625 702.46875 C 102.59375 702.46875 112.824219 712.699219 112.824219 725.28125 L 112.824219 727.726562 L 655.183594 727.726562 L 655.183594 725.28125 C 655.183594 712.699219 665.417969 702.46875 677.996094 702.46875 C 687.789062 702.46875 695.742188 710.433594 695.742188 720.226562 C 695.742188 727.789062 689.597656 733.933594 682.035156 733.933594 C 676.246094 733.933594 671.546875 729.234375 671.546875 723.457031 C 671.546875 719.101562 675.097656 715.5625 679.453125 715.5625 C 680.800781 715.5625 681.902344 714.460938 681.902344 713.117188 C 681.890625 711.757812 680.800781 710.667969 679.441406 710.667969 C 672.390625 710.667969 666.652344 716.40625 666.652344 723.457031 C 666.652344 731.9375 673.554688 738.828125 682.035156 738.828125 C 692.292969 738.828125 700.636719 730.480469 700.636719 720.226562 Z M 700.640625 47.773438 C 700.640625 37.511719 692.292969 29.164062 682.039062 29.164062 C 677.925781 29.164062 674.058594 30.761719 671.15625 33.667969 C 668.257812 36.570312 666.652344 40.433594 666.652344 44.539062 C 666.652344 47.957031 667.988281 51.171875 670.398438 53.585938 C 672.820312 56 676.027344 57.332031 679.441406 57.332031 C 680.800781 57.332031 681.890625 56.234375 681.890625 54.886719 C 681.890625 53.53125 680.800781 52.4375 679.441406 52.4375 C 677.335938 52.4375 675.355469 51.617188 673.863281 50.125 C 672.382812 48.632812 671.550781 46.648438 671.550781 44.539062 C 671.550781 41.742188 672.636719 39.109375 674.621094 37.128906 C 676.601562 35.152344 679.234375 34.0625 682.039062 34.0625 C 689.601562 34.0625 695.746094 40.214844 695.746094 47.773438 C 695.746094 57.5625 687.789062 65.527344 678 65.527344 C 665.417969 65.527344 655.1875 55.296875 655.1875 42.722656 L 655.1875 39.808594 L 112.828125 39.808594 L 112.820312 42.722656 C 112.820312 55.296875 102.59375 65.527344 90.015625 65.527344 C 80.230469 65.527344 72.265625 57.5625 72.265625 47.773438 C 72.265625 40.214844 78.417969 34.0625 85.976562 34.0625 C 88.777344 34.0625 91.40625 35.152344 93.390625 37.128906 C 95.371094 39.109375 96.460938 41.742188 96.460938 44.539062 C 96.460938 46.648438 95.636719 48.632812 94.148438 50.125 C 92.65625 51.617188 90.671875 52.4375 88.5625 52.4375 C 87.214844 52.4375 86.113281 53.53125 86.113281 54.886719 C 86.113281 56.234375 87.214844 57.332031 88.5625 57.332031 C 91.980469 57.332031 95.191406 56 97.609375 53.585938 C 100.023438 51.171875 101.355469 47.957031 101.355469 44.539062 C 101.355469 40.433594 99.753906 36.570312 96.851562 33.667969 C 93.945312 30.761719 90.082031 29.164062 85.976562 29.164062 C 75.71875 29.164062 67.371094 37.511719 67.371094 47.773438 C 67.371094 60.261719 77.53125 70.421875 90.015625 70.421875 C 104.625 70.421875 116.628906 59.054688 117.648438 44.703125 L 650.363281 44.703125 C 651.378906 59.054688 663.386719 70.421875 678 70.421875 C 690.480469 70.421875 700.640625 60.261719 700.640625 47.773438 Z M 726.574219 39.253906 C 722.707031 39.253906 714.589844 43.207031 705.902344 51.886719 C 701.03125 56.765625 697.152344 62 694.972656 66.625 C 693.015625 70.769531 692.953125 73.445312 693.761719 74.246094 C 694.152344 74.644531 694.898438 74.730469 695.460938 74.730469 C 699.332031 74.730469 707.433594 70.777344 716.121094 62.09375 C 726.488281 51.722656 730.304688 41.765625 728.273438 39.734375 C 727.871094 39.339844 727.125 39.253906 726.574219 39.253906 Z M 695.460938 79.625 C 692.769531 79.625 691.167969 78.582031 690.296875 77.707031 C 688.449219 75.863281 686.992188 72.078125 690.542969 64.542969 C 692.953125 59.417969 697.1875 53.691406 702.449219 48.425781 C 710.992188 39.882812 720.453125 34.355469 726.574219 34.355469 C 729.253906 34.355469 730.855469 35.398438 731.738281 36.273438 C 737.355469 41.894531 729.878906 55.261719 719.585938 65.554688 C 711.042969 74.105469 701.570312 79.625 695.460938 79.625 Z M 41.4375 39.253906 C 40.886719 39.253906 40.136719 39.339844 39.738281 39.734375 C 37.707031 41.765625 41.515625 51.722656 51.890625 62.09375 C 60.566406 70.769531 68.679688 74.730469 72.546875 74.730469 C 73.101562 74.730469 73.851562 74.644531 74.25 74.246094 C 75.050781 73.445312 74.988281 70.769531 73.035156 66.625 C 70.859375 62 66.972656 56.765625 62.097656 51.886719 C 53.417969 43.207031 45.308594 39.253906 41.4375 39.253906 Z M 72.546875 79.625 C 66.4375 79.625 56.972656 74.105469 48.429688 65.554688 C 38.132812 55.261719 30.65625 41.894531 36.277344 36.273438 C 37.152344 35.398438 38.753906 34.355469 41.4375 34.355469 C 47.546875 34.355469 57.015625 39.882812 65.558594 48.425781 C 70.828125 53.691406 75.050781 59.417969 77.46875 64.542969 C 81.015625 72.078125 79.554688 75.863281 77.710938 77.707031 C 76.835938 78.582031 75.230469 79.625 72.546875 79.625 " fill-opacity="1" fill-rule="nonzero"/><g fill="#000000" fill-opacity="1"><g transform="translate(281.910488, 674.099939)"><g><path d="M 6.859375 -11.046875 C 5.523438 -11.046875 4.472656 -10.601562 3.703125 -9.71875 C 2.929688 -8.832031 2.546875 -7.613281 2.546875 -6.0625 C 2.546875 -4.476562 2.914062 -3.253906 3.65625 -2.390625 C 4.40625 -1.523438 5.46875 -1.09375 6.84375 -1.09375 C 7.695312 -1.09375 8.664062 -1.242188 9.75 -1.546875 L 9.75 -0.3125 C 8.90625 0.0078125 7.863281 0.171875 6.625 0.171875 C 4.84375 0.171875 3.460938 -0.367188 2.484375 -1.453125 C 1.515625 -2.546875 1.03125 -4.085938 1.03125 -6.078125 C 1.03125 -7.328125 1.265625 -8.421875 1.734375 -9.359375 C 2.203125 -10.304688 2.878906 -11.035156 3.765625 -11.546875 C 4.648438 -12.054688 5.6875 -12.3125 6.875 -12.3125 C 8.15625 -12.3125 9.269531 -12.078125 10.21875 -11.609375 L 9.625 -10.40625 C 8.707031 -10.832031 7.785156 -11.046875 6.859375 -11.046875 Z M 6.859375 -11.046875 "/></g></g></g><g fill="#000000" fill-opacity="1"><g transform="translate(292.630168, 674.099939)"><g><path d="M 5.609375 -9.265625 C 6.015625 -9.265625 6.378906 -9.234375 6.703125 -9.171875 L 6.515625 -7.890625 C 6.128906 -7.972656 5.796875 -8.015625 5.515625 -8.015625 C 4.773438 -8.015625 4.144531 -7.710938 3.625 -7.109375 C 3.101562 -6.515625 2.84375 -5.769531 2.84375 -4.875 L 2.84375 0 L 1.46875 0 L 1.46875 -9.09375 L 2.59375 -9.09375 L 2.75 -7.40625 L 2.828125 -7.40625 C 3.160156 -8 3.5625 -8.457031 4.03125 -8.78125 C 4.507812 -9.101562 5.035156 -9.265625 5.609375 -9.265625 Z M 5.609375 -9.265625 "/></g></g></g><g fill="#000000" fill-opacity="1"><g transform="translate(299.566432, 674.099939)"><g><path d="M 5.296875 0.171875 C 3.953125 0.171875 2.890625 -0.238281 2.109375 -1.0625 C 1.335938 -1.882812 0.953125 -3.019531 0.953125 -4.46875 C 0.953125 -5.9375 1.3125 -7.101562 2.03125 -7.96875 C 2.757812 -8.832031 3.734375 -9.265625 4.953125 -9.265625 C 6.085938 -9.265625 6.988281 -8.890625 7.65625 -8.140625 C 8.320312 -7.390625 8.65625 -6.398438 8.65625 -5.171875 L 8.65625 -4.296875 L 2.375 -4.296875 C 2.40625 -3.234375 2.675781 -2.421875 3.1875 -1.859375 C 3.695312 -1.304688 4.421875 -1.03125 5.359375 -1.03125 C 6.335938 -1.03125 7.304688 -1.238281 8.265625 -1.65625 L 8.265625 -0.421875 C 7.773438 -0.210938 7.3125 -0.0625 6.875 0.03125 C 6.4375 0.125 5.910156 0.171875 5.296875 0.171875 Z M 4.9375 -8.109375 C 4.195312 -8.109375 3.609375 -7.867188 3.171875 -7.390625 C 2.742188 -6.921875 2.492188 -6.265625 2.421875 -5.421875 L 7.171875 -5.421875 C 7.171875 -6.285156 6.976562 -6.945312 6.59375 -7.40625 C 6.207031 -7.875 5.65625 -8.109375 4.9375 -8.109375 Z M 4.9375 -8.109375 "/></g></g></g><g fill="#000000" fill-opacity="1"><g transform="translate(309.099646, 674.099939)"><g><path d="M 7.0625 0 L 6.78125 -1.296875 L 6.71875 -1.296875 C 6.257812 -0.722656 5.804688 -0.332031 5.359375 -0.125 C 4.910156 0.0703125 4.347656 0.171875 3.671875 0.171875 C 2.765625 0.171875 2.054688 -0.0625 1.546875 -0.53125 C 1.035156 -1 0.78125 -1.660156 0.78125 -2.515625 C 0.78125 -4.347656 2.25 -5.3125 5.1875 -5.40625 L 6.734375 -5.453125 L 6.734375 -6.015625 C 6.734375 -6.734375 6.578125 -7.257812 6.265625 -7.59375 C 5.960938 -7.9375 5.472656 -8.109375 4.796875 -8.109375 C 4.035156 -8.109375 3.175781 -7.875 2.21875 -7.40625 L 1.796875 -8.46875 C 2.242188 -8.707031 2.734375 -8.894531 3.265625 -9.03125 C 3.804688 -9.175781 4.34375 -9.25 4.875 -9.25 C 5.96875 -9.25 6.773438 -9.003906 7.296875 -8.515625 C 7.816406 -8.035156 8.078125 -7.265625 8.078125 -6.203125 L 8.078125 0 Z M 3.9375 -0.96875 C 4.800781 -0.96875 5.476562 -1.203125 5.96875 -1.671875 C 6.457031 -2.140625 6.703125 -2.800781 6.703125 -3.65625 L 6.703125 -4.46875 L 5.328125 -4.421875 C 4.222656 -4.378906 3.425781 -4.207031 2.9375 -3.90625 C 2.457031 -3.601562 2.21875 -3.132812 2.21875 -2.5 C 2.21875 -2 2.367188 -1.617188 2.671875 -1.359375 C 2.972656 -1.097656 3.394531 -0.96875 3.9375 -0.96875 Z M 3.9375 -0.96875 "/></g></g></g><g fill="#000000" fill-opacity="1"><g transform="translate(318.54989, 674.099939)"><g><path d="M 4.40625 -0.96875 C 4.644531 -0.96875 4.878906 -0.984375 5.109375 -1.015625 C 5.335938 -1.054688 5.515625 -1.097656 5.640625 -1.140625 L 5.640625 -0.078125 C 5.492188 -0.00390625 5.273438 0.0507812 4.984375 0.09375 C 4.691406 0.144531 4.429688 0.171875 4.203125 0.171875 C 2.441406 0.171875 1.5625 -0.753906 1.5625 -2.609375 L 1.5625 -8.03125 L 0.25 -8.03125 L 0.25 -8.6875 L 1.5625 -9.265625 L 2.140625 -11.203125 L 2.9375 -11.203125 L 2.9375 -9.09375 L 5.578125 -9.09375 L 5.578125 -8.03125 L 2.9375 -8.03125 L 2.9375 -2.671875 C 2.9375 -2.117188 3.066406 -1.695312 3.328125 -1.40625 C 3.585938 -1.113281 3.945312 -0.96875 4.40625 -0.96875 Z M 4.40625 -0.96875 "/></g></g></g><g fill="#000000" fill-opacity="1"><g transform="translate(324.548597, 674.099939)"><g><path d="M 5.296875 0.171875 C 3.953125 0.171875 2.890625 -0.238281 2.109375 -1.0625 C 1.335938 -1.882812 0.953125 -3.019531 0.953125 -4.46875 C 0.953125 -5.9375 1.3125 -7.101562 2.03125 -7.96875 C 2.757812 -8.832031 3.734375 -9.265625 4.953125 -9.265625 C 6.085938 -9.265625 6.988281 -8.890625 7.65625 -8.140625 C 8.320312 -7.390625 8.65625 -6.398438 8.65625 -5.171875 L 8.65625 -4.296875 L 2.375 -4.296875 C 2.40625 -3.234375 2.675781 -2.421875 3.1875 -1.859375 C 3.695312 -1.304688 4.421875 -1.03125 5.359375 -1.03125 C 6.335938 -1.03125 7.304688 -1.238281 8.265625 -1.65625 L 8.265625 -0.421875 C 7.773438 -0.210938 7.3125 -0.0625 6.875 0.03125 C 6.4375 0.125 5.910156 0.171875 5.296875 0.171875 Z M 4.9375 -8.109375 C 4.195312 -8.109375 3.609375 -7.867188 3.171875 -7.390625 C 2.742188 -6.921875 2.492188 -6.265625 2.421875 -5.421875 L 7.171875 -5.421875 C 7.171875 -6.285156 6.976562 -6.945312 6.59375 -7.40625 C 6.207031 -7.875 5.65625 -8.109375 4.9375 -8.109375 Z M 4.9375 -8.109375 "/></g></g></g><g fill="#000000" fill-opacity="1"><g transform="translate(334.081811, 674.099939)"><g><path d="M 7.65625 -1.21875 L 7.578125 -1.21875 C 6.941406 -0.289062 5.988281 0.171875 4.71875 0.171875 C 3.53125 0.171875 2.601562 -0.234375 1.9375 -1.046875 C 1.28125 -1.867188 0.953125 -3.03125 0.953125 -4.53125 C 0.953125 -6.03125 1.285156 -7.191406 1.953125 -8.015625 C 2.617188 -8.847656 3.539062 -9.265625 4.71875 -9.265625 C 5.957031 -9.265625 6.90625 -8.816406 7.5625 -7.921875 L 7.671875 -7.921875 L 7.609375 -8.578125 L 7.578125 -9.21875 L 7.578125 -12.921875 L 8.953125 -12.921875 L 8.953125 0 L 7.84375 0 Z M 4.890625 -0.984375 C 5.835938 -0.984375 6.519531 -1.238281 6.9375 -1.75 C 7.363281 -2.269531 7.578125 -3.097656 7.578125 -4.234375 L 7.578125 -4.53125 C 7.578125 -5.8125 7.363281 -6.726562 6.9375 -7.28125 C 6.507812 -7.832031 5.820312 -8.109375 4.875 -8.109375 C 4.070312 -8.109375 3.453125 -7.789062 3.015625 -7.15625 C 2.585938 -6.53125 2.375 -5.644531 2.375 -4.5 C 2.375 -3.34375 2.585938 -2.46875 3.015625 -1.875 C 3.441406 -1.28125 4.066406 -0.984375 4.890625 -0.984375 Z M 4.890625 -0.984375 "/></g></g></g><g fill="#000000" fill-opacity="1"><g transform="translate(344.494504, 674.099939)"><g/></g></g><g fill="#000000" fill-opacity="1"><g transform="translate(348.908489, 674.099939)"><g><path d="M 8.890625 0 L 7.21875 -5.34375 C 7.113281 -5.664062 6.914062 -6.40625 6.625 -7.5625 L 6.5625 -7.5625 C 6.34375 -6.59375 6.148438 -5.847656 5.984375 -5.328125 L 4.265625 0 L 2.671875 0 L 0.1875 -9.09375 L 1.640625 -9.09375 C 2.222656 -6.8125 2.664062 -5.070312 2.96875 -3.875 C 3.28125 -2.675781 3.457031 -1.875 3.5 -1.46875 L 3.5625 -1.46875 C 3.625 -1.78125 3.722656 -2.1875 3.859375 -2.6875 C 3.992188 -3.1875 4.113281 -3.582031 4.21875 -3.875 L 5.890625 -9.09375 L 7.375 -9.09375 L 9 -3.875 C 9.3125 -2.925781 9.523438 -2.128906 9.640625 -1.484375 L 9.703125 -1.484375 C 9.722656 -1.679688 9.78125 -1.984375 9.875 -2.390625 C 9.976562 -2.804688 10.554688 -5.039062 11.609375 -9.09375 L 13.046875 -9.09375 L 10.53125 0 Z M 8.890625 0 "/></g></g></g><g fill="#000000" fill-opacity="1"><g transform="translate(362.125557, 674.099939)"><g><path d="M 2.84375 0 L 1.46875 0 L 1.46875 -9.09375 L 2.84375 -9.09375 Z M 1.34375 -11.5625 C 1.34375 -11.875 1.421875 -12.101562 1.578125 -12.25 C 1.734375 -12.394531 1.925781 -12.46875 2.15625 -12.46875 C 2.375 -12.46875 2.5625 -12.394531 2.71875 -12.25 C 2.882812 -12.101562 2.96875 -11.875 2.96875 -11.5625 C 2.96875 -11.25 2.882812 -11.015625 2.71875 -10.859375 C 2.5625 -10.710938 2.375 -10.640625 2.15625 -10.640625 C 1.925781 -10.640625 1.734375 -10.710938 1.578125 -10.859375 C 1.421875 -11.015625 1.34375 -11.25 1.34375 -11.5625 Z M 1.34375 -11.5625 "/></g></g></g><g fill="#000000" fill-opacity="1"><g transform="translate(366.423385, 674.099939)"><g><path d="M 4.40625 -0.96875 C 4.644531 -0.96875 4.878906 -0.984375 5.109375 -1.015625 C 5.335938 -1.054688 5.515625 -1.097656 5.640625 -1.140625 L 5.640625 -0.078125 C 5.492188 -0.00390625 5.273438 0.0507812 4.984375 0.09375 C 4.691406 0.144531 4.429688 0.171875 4.203125 0.171875 C 2.441406 0.171875 1.5625 -0.753906 1.5625 -2.609375 L 1.5625 -8.03125 L 0.25 -8.03125 L 0.25 -8.6875 L 1.5625 -9.265625 L 2.140625 -11.203125 L 2.9375 -11.203125 L 2.9375 -9.09375 L 5.578125 -9.09375 L 5.578125 -8.03125 L 2.9375 -8.03125 L 2.9375 -2.671875 C 2.9375 -2.117188 3.066406 -1.695312 3.328125 -1.40625 C 3.585938 -1.113281 3.945312 -0.96875 4.40625 -0.96875 Z M 4.40625 -0.96875 "/></g></g></g><g fill="#000000" fill-opacity="1"><g transform="translate(372.422092, 674.099939)"><g><path d="M 7.6875 0 L 7.6875 -5.890625 C 7.6875 -6.628906 7.515625 -7.179688 7.171875 -7.546875 C 6.835938 -7.910156 6.3125 -8.09375 5.59375 -8.09375 C 4.632812 -8.09375 3.9375 -7.832031 3.5 -7.3125 C 3.0625 -6.789062 2.84375 -5.9375 2.84375 -4.75 L 2.84375 0 L 1.46875 0 L 1.46875 -12.921875 L 2.84375 -12.921875 L 2.84375 -9 C 2.84375 -8.53125 2.816406 -8.144531 2.765625 -7.84375 L 2.859375 -7.84375 C 3.128906 -8.269531 3.515625 -8.609375 4.015625 -8.859375 C 4.515625 -9.117188 5.085938 -9.25 5.734375 -9.25 C 6.835938 -9.25 7.664062 -8.984375 8.21875 -8.453125 C 8.78125 -7.921875 9.0625 -7.082031 9.0625 -5.9375 L 9.0625 0 Z M 7.6875 0 "/></g></g></g><g fill="#000000" fill-opacity="1"><g transform="translate(382.851378, 674.099939)"><g/></g></g><g fill="#000000" fill-opacity="1"><g transform="translate(387.265364, 674.099939)"><g><path d="M 3.078125 0 L 1.671875 0 L 1.671875 -12.140625 L 8.4375 -12.140625 L 8.4375 -10.875 L 3.078125 -10.875 L 3.078125 -6.4375 L 8.109375 -6.4375 L 8.109375 -5.1875 L 3.078125 -5.1875 Z M 3.078125 0 "/></g></g></g><g fill="#000000" fill-opacity="1"><g transform="translate(396.035257, 674.099939)"><g><path d="M 7.0625 0 L 6.78125 -1.296875 L 6.71875 -1.296875 C 6.257812 -0.722656 5.804688 -0.332031 5.359375 -0.125 C 4.910156 0.0703125 4.347656 0.171875 3.671875 0.171875 C 2.765625 0.171875 2.054688 -0.0625 1.546875 -0.53125 C 1.035156 -1 0.78125 -1.660156 0.78125 -2.515625 C 0.78125 -4.347656 2.25 -5.3125 5.1875 -5.40625 L 6.734375 -5.453125 L 6.734375 -6.015625 C 6.734375 -6.734375 6.578125 -7.257812 6.265625 -7.59375 C 5.960938 -7.9375 5.472656 -8.109375 4.796875 -8.109375 C 4.035156 -8.109375 3.175781 -7.875 2.21875 -7.40625 L 1.796875 -8.46875 C 2.242188 -8.707031 2.734375 -8.894531 3.265625 -9.03125 C 3.804688 -9.175781 4.34375 -9.25 4.875 -9.25 C 5.96875 -9.25 6.773438 -9.003906 7.296875 -8.515625 C 7.816406 -8.035156 8.078125 -7.265625 8.078125 -6.203125 L 8.078125 0 Z M 3.9375 -0.96875 C 4.800781 -0.96875 5.476562 -1.203125 5.96875 -1.671875 C 6.457031 -2.140625 6.703125 -2.800781 6.703125 -3.65625 L 6.703125 -4.46875 L 5.328125 -4.421875 C 4.222656 -4.378906 3.425781 -4.207031 2.9375 -3.90625 C 2.457031 -3.601562 2.21875 -3.132812 2.21875 -2.5 C 2.21875 -2 2.367188 -1.617188 2.671875 -1.359375 C 2.972656 -1.097656 3.394531 -0.96875 3.9375 -0.96875 Z M 3.9375 -0.96875 "/></g></g></g><g fill="#000000" fill-opacity="1"><g transform="translate(405.485502, 674.099939)"><g><path d="M 7.328125 -2.484375 C 7.328125 -1.640625 7.007812 -0.984375 6.375 -0.515625 C 5.75 -0.0546875 4.867188 0.171875 3.734375 0.171875 C 2.523438 0.171875 1.582031 -0.0195312 0.90625 -0.40625 L 0.90625 -1.6875 C 1.34375 -1.46875 1.8125 -1.289062 2.3125 -1.15625 C 2.8125 -1.03125 3.296875 -0.96875 3.765625 -0.96875 C 4.484375 -0.96875 5.035156 -1.082031 5.421875 -1.3125 C 5.804688 -1.539062 6 -1.890625 6 -2.359375 C 6 -2.710938 5.84375 -3.015625 5.53125 -3.265625 C 5.226562 -3.523438 4.632812 -3.828125 3.75 -4.171875 C 2.894531 -4.484375 2.289062 -4.753906 1.9375 -4.984375 C 1.582031 -5.222656 1.316406 -5.492188 1.140625 -5.796875 C 0.960938 -6.097656 0.875 -6.453125 0.875 -6.859375 C 0.875 -7.609375 1.175781 -8.195312 1.78125 -8.625 C 2.382812 -9.050781 3.210938 -9.265625 4.265625 -9.265625 C 5.242188 -9.265625 6.203125 -9.066406 7.140625 -8.671875 L 6.65625 -7.546875 C 5.738281 -7.921875 4.910156 -8.109375 4.171875 -8.109375 C 3.515625 -8.109375 3.019531 -8.003906 2.6875 -7.796875 C 2.351562 -7.597656 2.1875 -7.316406 2.1875 -6.953125 C 2.1875 -6.710938 2.25 -6.503906 2.375 -6.328125 C 2.5 -6.160156 2.695312 -6 2.96875 -5.84375 C 3.25 -5.6875 3.785156 -5.460938 4.578125 -5.171875 C 5.648438 -4.773438 6.375 -4.378906 6.75 -3.984375 C 7.132812 -3.585938 7.328125 -3.085938 7.328125 -2.484375 Z M 7.328125 -2.484375 "/></g></g></g><g fill="#000000" fill-opacity="1"><g transform="translate(413.591637, 674.099939)"><g><path d="M 4.40625 -0.96875 C 4.644531 -0.96875 4.878906 -0.984375 5.109375 -1.015625 C 5.335938 -1.054688 5.515625 -1.097656 5.640625 -1.140625 L 5.640625 -0.078125 C 5.492188 -0.00390625 5.273438 0.0507812 4.984375 0.09375 C 4.691406 0.144531 4.429688 0.171875 4.203125 0.171875 C 2.441406 0.171875 1.5625 -0.753906 1.5625 -2.609375 L 1.5625 -8.03125 L 0.25 -8.03125 L 0.25 -8.6875 L 1.5625 -9.265625 L 2.140625 -11.203125 L 2.9375 -11.203125 L 2.9375 -9.09375 L 5.578125 -9.09375 L 5.578125 -8.03125 L 2.9375 -8.03125 L 2.9375 -2.671875 C 2.9375 -2.117188 3.066406 -1.695312 3.328125 -1.40625 C 3.585938 -1.113281 3.945312 -0.96875 4.40625 -0.96875 Z M 4.40625 -0.96875 "/></g></g></g><g fill="#000000" fill-opacity="1"><g transform="translate(419.590344, 674.099939)"><g><path d="M 8.59375 -12.140625 L 10.125 -12.140625 L 5.75 0 L 4.34375 0 L 0 -12.140625 L 1.5 -12.140625 L 4.28125 -4.28125 C 4.601562 -3.382812 4.859375 -2.507812 5.046875 -1.65625 C 5.242188 -2.550781 5.503906 -3.441406 5.828125 -4.328125 Z M 8.59375 -12.140625 "/></g></g></g><g fill="#000000" fill-opacity="1"><g transform="translate(429.704346, 674.099939)"><g><path d="M 9.3125 -4.5625 C 9.3125 -3.070312 8.9375 -1.910156 8.1875 -1.078125 C 7.445312 -0.242188 6.414062 0.171875 5.09375 0.171875 C 4.28125 0.171875 3.554688 -0.0195312 2.921875 -0.40625 C 2.296875 -0.789062 1.8125 -1.335938 1.46875 -2.046875 C 1.125 -2.765625 0.953125 -3.601562 0.953125 -4.5625 C 0.953125 -6.039062 1.320312 -7.191406 2.0625 -8.015625 C 2.800781 -8.847656 3.832031 -9.265625 5.15625 -9.265625 C 6.425781 -9.265625 7.4375 -8.835938 8.1875 -7.984375 C 8.9375 -7.140625 9.3125 -6 9.3125 -4.5625 Z M 2.375 -4.5625 C 2.375 -3.394531 2.609375 -2.503906 3.078125 -1.890625 C 3.546875 -1.285156 4.226562 -0.984375 5.125 -0.984375 C 6.03125 -0.984375 6.71875 -1.285156 7.1875 -1.890625 C 7.65625 -2.503906 7.890625 -3.394531 7.890625 -4.5625 C 7.890625 -5.71875 7.65625 -6.59375 7.1875 -7.1875 C 6.71875 -7.789062 6.023438 -8.09375 5.109375 -8.09375 C 4.210938 -8.09375 3.53125 -7.796875 3.0625 -7.203125 C 2.601562 -6.609375 2.375 -5.726562 2.375 -4.5625 Z M 2.375 -4.5625 "/></g></g></g><g fill="#000000" fill-opacity="1"><g transform="translate(439.967693, 674.099939)"><g><path d="M 2.84375 0 L 1.46875 0 L 1.46875 -9.09375 L 2.84375 -9.09375 Z M 1.34375 -11.5625 C 1.34375 -11.875 1.421875 -12.101562 1.578125 -12.25 C 1.734375 -12.394531 1.925781 -12.46875 2.15625 -12.46875 C 2.375 -12.46875 2.5625 -12.394531 2.71875 -12.25 C 2.882812 -12.101562 2.96875 -11.875 2.96875 -11.5625 C 2.96875 -11.25 2.882812 -11.015625 2.71875 -10.859375 C 2.5625 -10.710938 2.375 -10.640625 2.15625 -10.640625 C 1.925781 -10.640625 1.734375 -10.710938 1.578125 -10.859375 C 1.421875 -11.015625 1.34375 -11.25 1.34375 -11.5625 Z M 1.34375 -11.5625 "/></g></g></g><g fill="#000000" fill-opacity="1"><g transform="translate(444.265521, 674.099939)"><g><path d="M 5.09375 0.171875 C 3.78125 0.171875 2.757812 -0.234375 2.03125 -1.046875 C 1.3125 -1.859375 0.953125 -3.003906 0.953125 -4.484375 C 0.953125 -6.015625 1.316406 -7.191406 2.046875 -8.015625 C 2.785156 -8.847656 3.832031 -9.265625 5.1875 -9.265625 C 5.625 -9.265625 6.0625 -9.21875 6.5 -9.125 C 6.9375 -9.03125 7.28125 -8.921875 7.53125 -8.796875 L 7.109375 -7.625 C 6.804688 -7.738281 6.472656 -7.835938 6.109375 -7.921875 C 5.742188 -8.003906 5.425781 -8.046875 5.15625 -8.046875 C 3.300781 -8.046875 2.375 -6.863281 2.375 -4.5 C 2.375 -3.382812 2.597656 -2.523438 3.046875 -1.921875 C 3.503906 -1.328125 4.175781 -1.03125 5.0625 -1.03125 C 5.820312 -1.03125 6.597656 -1.195312 7.390625 -1.53125 L 7.390625 -0.3125 C 6.785156 0.0078125 6.019531 0.171875 5.09375 0.171875 Z M 5.09375 0.171875 "/></g></g></g><g fill="#000000" fill-opacity="1"><g transform="translate(452.355063, 674.099939)"><g><path d="M 5.296875 0.171875 C 3.953125 0.171875 2.890625 -0.238281 2.109375 -1.0625 C 1.335938 -1.882812 0.953125 -3.019531 0.953125 -4.46875 C 0.953125 -5.9375 1.3125 -7.101562 2.03125 -7.96875 C 2.757812 -8.832031 3.734375 -9.265625 4.953125 -9.265625 C 6.085938 -9.265625 6.988281 -8.890625 7.65625 -8.140625 C 8.320312 -7.390625 8.65625 -6.398438 8.65625 -5.171875 L 8.65625 -4.296875 L 2.375 -4.296875 C 2.40625 -3.234375 2.675781 -2.421875 3.1875 -1.859375 C 3.695312 -1.304688 4.421875 -1.03125 5.359375 -1.03125 C 6.335938 -1.03125 7.304688 -1.238281 8.265625 -1.65625 L 8.265625 -0.421875 C 7.773438 -0.210938 7.3125 -0.0625 6.875 0.03125 C 6.4375 0.125 5.910156 0.171875 5.296875 0.171875 Z M 4.9375 -8.109375 C 4.195312 -8.109375 3.609375 -7.867188 3.171875 -7.390625 C 2.742188 -6.921875 2.492188 -6.265625 2.421875 -5.421875 L 7.171875 -5.421875 C 7.171875 -6.285156 6.976562 -6.945312 6.59375 -7.40625 C 6.207031 -7.875 5.65625 -8.109375 4.9375 -8.109375 Z M 4.9375 -8.109375 "/></g></g></g><g fill="#000000" fill-opacity="1"><g transform="translate(461.888277, 674.099939)"><g><path d="M 11.140625 0 L 9.53125 0 L 2.90625 -10.1875 L 2.84375 -10.1875 C 2.925781 -8.988281 2.96875 -7.890625 2.96875 -6.890625 L 2.96875 0 L 1.671875 0 L 1.671875 -12.140625 L 3.265625 -12.140625 L 9.875 -2 L 9.9375 -2 C 9.925781 -2.144531 9.898438 -2.625 9.859375 -3.4375 C 9.828125 -4.25 9.816406 -4.828125 9.828125 -5.171875 L 9.828125 -12.140625 L 11.140625 -12.140625 Z M 11.140625 0 "/></g></g></g><g fill="#000000" fill-opacity="1"><g transform="translate(474.698793, 674.099939)"><g><path d="M 9.3125 -4.5625 C 9.3125 -3.070312 8.9375 -1.910156 8.1875 -1.078125 C 7.445312 -0.242188 6.414062 0.171875 5.09375 0.171875 C 4.28125 0.171875 3.554688 -0.0195312 2.921875 -0.40625 C 2.296875 -0.789062 1.8125 -1.335938 1.46875 -2.046875 C 1.125 -2.765625 0.953125 -3.601562 0.953125 -4.5625 C 0.953125 -6.039062 1.320312 -7.191406 2.0625 -8.015625 C 2.800781 -8.847656 3.832031 -9.265625 5.15625 -9.265625 C 6.425781 -9.265625 7.4375 -8.835938 8.1875 -7.984375 C 8.9375 -7.140625 9.3125 -6 9.3125 -4.5625 Z M 2.375 -4.5625 C 2.375 -3.394531 2.609375 -2.503906 3.078125 -1.890625 C 3.546875 -1.285156 4.226562 -0.984375 5.125 -0.984375 C 6.03125 -0.984375 6.71875 -1.285156 7.1875 -1.890625 C 7.65625 -2.503906 7.890625 -3.394531 7.890625 -4.5625 C 7.890625 -5.71875 7.65625 -6.59375 7.1875 -7.1875 C 6.71875 -7.789062 6.023438 -8.09375 5.109375 -8.09375 C 4.210938 -8.09375 3.53125 -7.796875 3.0625 -7.203125 C 2.601562 -6.609375 2.375 -5.726562 2.375 -4.5625 Z M 2.375 -4.5625 "/></g></g></g><g fill="#000000" fill-opacity="1"><g transform="translate(484.962128, 674.099939)"><g><path d="M 4.40625 -0.96875 C 4.644531 -0.96875 4.878906 -0.984375 5.109375 -1.015625 C 5.335938 -1.054688 5.515625 -1.097656 5.640625 -1.140625 L 5.640625 -0.078125 C 5.492188 -0.00390625 5.273438 0.0507812 4.984375 0.09375 C 4.691406 0.144531 4.429688 0.171875 4.203125 0.171875 C 2.441406 0.171875 1.5625 -0.753906 1.5625 -2.609375 L 1.5625 -8.03125 L 0.25 -8.03125 L 0.25 -8.6875 L 1.5625 -9.265625 L 2.140625 -11.203125 L 2.9375 -11.203125 L 2.9375 -9.09375 L 5.578125 -9.09375 L 5.578125 -8.03125 L 2.9375 -8.03125 L 2.9375 -2.671875 C 2.9375 -2.117188 3.066406 -1.695312 3.328125 -1.40625 C 3.585938 -1.113281 3.945312 -0.96875 4.40625 -0.96875 Z M 4.40625 -0.96875 "/></g></g></g><g fill="#000000" fill-opacity="1"><g transform="translate(490.960846, 674.099939)"><g><path d="M 5.296875 0.171875 C 3.953125 0.171875 2.890625 -0.238281 2.109375 -1.0625 C 1.335938 -1.882812 0.953125 -3.019531 0.953125 -4.46875 C 0.953125 -5.9375 1.3125 -7.101562 2.03125 -7.96875 C 2.757812 -8.832031 3.734375 -9.265625 4.953125 -9.265625 C 6.085938 -9.265625 6.988281 -8.890625 7.65625 -8.140625 C 8.320312 -7.390625 8.65625 -6.398438 8.65625 -5.171875 L 8.65625 -4.296875 L 2.375 -4.296875 C 2.40625 -3.234375 2.675781 -2.421875 3.1875 -1.859375 C 3.695312 -1.304688 4.421875 -1.03125 5.359375 -1.03125 C 6.335938 -1.03125 7.304688 -1.238281 8.265625 -1.65625 L 8.265625 -0.421875 C 7.773438 -0.210938 7.3125 -0.0625 6.875 0.03125 C 6.4375 0.125 5.910156 0.171875 5.296875 0.171875 Z M 4.9375 -8.109375 C 4.195312 -8.109375 3.609375 -7.867188 3.171875 -7.390625 C 2.742188 -6.921875 2.492188 -6.265625 2.421875 -5.421875 L 7.171875 -5.421875 C 7.171875 -6.285156 6.976562 -6.945312 6.59375 -7.40625 C 6.207031 -7.875 5.65625 -8.109375 4.9375 -8.109375 Z M 4.9375 -8.109375 "/></g></g></g></svg>